<svg xmlns="http://www.w3.org/2000/svg" viewBox="0 0 512 512" width="512" height="512">
  <rect width="512" height="512" rx="112" fill="#E4572E"/>
  <g transform="">
    <path d="M256 300 q92 0 92 132 h-184 q0 -132 92 -132z" fill="#F4B942"/>
    <path d="M256 300 q-92 0 -92 132 h34 q0 -108 58 -132z" fill="#F8CE72"/>
    <circle cx="256" cy="196" r="88" fill="#F5D3B5"/>
    <path d="M256 108 a88 88 0 0 0 -88 88 a88 88 0 0 0 26 62 a74 88 0 0 1 62 -150z" fill="#FBE6D2"/>
    <circle cx="227" cy="188" r="14" fill="#2B2A33"/>
    <circle cx="285" cy="188" r="14" fill="#2B2A33"/>
    <circle cx="232" cy="183" r="5" fill="#FFF"/>
    <circle cx="290" cy="183" r="5" fill="#FFF"/>
    <path d="M220 230 q36 32 72 0" fill="none" stroke="#2B2A33"
      stroke-width="15" stroke-linecap="round"/>
    <circle cx="196" cy="222" r="13" fill="#F2A98F" opacity=".75"/>
    <circle cx="316" cy="222" r="13" fill="#F2A98F" opacity=".75"/>
  </g>
</svg>
